{"title":"American.Hustle.2013.BRRip.720p.x264.AAC-PRiSTiNE [P2PDL]","uid":9681143,"size":863159087,"categoryP":"video","categoryS":"hd___movies","magnet":"?xt=urn:btih:a1828e814e13efdcb1d37a361f982222aa0edabb&amp;dn=American.Hustle.2013.BRRip.720p.x264.AAC-PRiSTiNE+%5BP2PDL%5D&amp;tr=udp%3A%2F%2Ftracker.openbittorrent.com%3A80&amp;tr=udp%3A%2F%2Fopen.demonii.com%3A1337&amp;tr=udp%3A%2F%2Ftracker.coppersurfer.tk%3A6969&amp;tr=udp%3A%2F%2Fexodus.desync.com%3A6969","seeders":32,"leechers":9,"uploader":"ValidusVyto","files":-1,"time":1393669232,"description":"American.Hustle.2013.BRRip.720p.x264.AAC-PRiSTiNE\n\n\nGenre: Crime | Drama &lt;a href=&quot;\nhttp://www.imdb.com/title/tt1800241/&quot; rel=&quot;nofollow&quot; target=&quot;_NEW&quot;&gt;\nhttp://www.imdb.com/title/tt1800241/&lt;/a&gt;\n\n\nFormat                                   : MPEG-4\nFile size                                : 815 MiB\nDuration                                 : 2h 18mn\nOverall bit rate mode                    : Variable\nOverall bit rate                         : 825 Kbps\n\nVideo\nFormat                                   : AVC\nFormat profile                           : &lt;a class=&quot;__cf_email__&quot; href=&quot;/cdn-cgi/l/email-protection&quot; data-cfemail=&quot;a7efcec0cfe7eb938996&quot;&gt;[email&amp;#160;protected]&lt;/a&gt;&lt;script cf-hash='f9e31' type=&quot;text/javascript&quot;&gt;\n/* &lt;![CDATA[ */!function(){try{var t=&quot;currentScript&quot;in document?document.currentScript:function(){for(var t=document.getElementsByTagName(&quot;script&quot;),e=t.length;e--;)if(t[e].getAttribute(&quot;cf-hash&quot;))return t[e]}();if(t&amp;&amp;t.previousSibling){var e,r,n,i,c=t.previousSibling,a=c.getAttribute(&quot;data-cfemail&quot;);if(a){for(e=&quot;&quot;,r=parseInt(a.substr(0,2),16),n=2;a.length-n;n+=2)i=parseInt(a.substr(n,2),16)^r,e+=String.fromCharCode(i);e=document.createTextNode(e),c.parentNode.replaceChild(e,c)}}}catch(u){}}();/* ]]&gt; */&lt;/script&gt;\nBit rate                                 : 740 Kbps\nWidth                                    : 1 280 pixels\nHeight                                   : 528 pixels\nDisplay aspect ratio                     : 2.40:1\nFrame rate mode                          : Variable\nFrame rate                               : 23.976 fps\nBit depth                                : 8 bits\nStream size                              : 731 MiB (90%)\nWriting library                          : x264 core 142 r2389 956c8d8\n\nAudio\nFormat                                   : AAC\nBit rate mode                            : Variable\nBit rate                                 : 80.0 Kbps\nChannel(s)                               : 2 channels\nChannel positions                        : Front: L R\nSampling rate                            : 48.0 KHz\nStream size                              : 79.0 MiB (10%)\nLanguage                                 : English\n\nSubtitle                                 : Yes (English)\n &lt;a href=&quot;\nhttp://someimage.com/8Z0rAWz&quot; rel=&quot;nofollow&quot; target=&quot;_NEW&quot;&gt;\nhttp://someimage.com/8Z0rAWz&lt;/a&gt; &lt;a href=&quot;\nhttp://someimage.com/fNSvz63&quot; rel=&quot;nofollow&quot; target=&quot;_NEW&quot;&gt;\nhttp://someimage.com/fNSvz63&lt;/a&gt; &lt;a href=&quot;\nhttp://someimage.com/8PlhN9u&quot; rel=&quot;nofollow&quot; target=&quot;_NEW&quot;&gt;\nhttp://someimage.com/8PlhN9u&lt;/a&gt; &lt;a href=&quot;\nhttp://someimage.com/qeg6srY&quot; rel=&quot;nofollow&quot; target=&quot;_NEW&quot;&gt;\nhttp://someimage.com/qeg6srY&lt;/a&gt; &lt;a href=&quot;\nhttp://someimage.com/vix934z&quot; rel=&quot;nofollow&quot; target=&quot;_NEW&quot;&gt;\nhttp://someimage.com/vix934z&lt;/a&gt; &lt;a href=&quot;\nhttp://someimage.com/WHcohe4&quot; rel=&quot;nofollow&quot; target=&quot;_NEW&quot;&gt;\nhttp://someimage.com/WHcohe4&lt;/a&gt;\n\n\nFind us P2PDL P2P community!\n\nMay send us few BTC : 16aCJG7J5n8eqCHHLPNUZ3ZirwGU34cqXJ ","torrent":{"xt":"urn:btih:a1828e814e13efdcb1d37a361f982222aa0edabb","amp;dn":"American.Hustle.2013.BRRip.720p.x264.AAC-PRiSTiNE+%5BP2PDL%5D","amp;tr":["udp%3A%2F%2Ftracker.openbittorrent.com%3A80","udp%3A%2F%2Fopen.demonii.com%3A1337","udp%3A%2F%2Ftracker.coppersurfer.tk%3A6969","udp%3A%2F%2Fexodus.desync.com%3A6969"],"infoHash":"a1828e814e13efdcb1d37a361f982222aa0edabb","infoHashBuffer":{"type":"Buffer","data":[161,130,142,129,78,19,239,220,177,211,122,54,31,152,34,34,170,14,218,187]},"announce":[],"urlList":[]}}